<svg width="420" viewBox="0 0 680 690" role="img" xmlns="http://www.w3.org/2000/svg"><title>The builder's fortune seal</title><desc>A circular gold and navy seal. A triangle labeled giving, earning, and signal surrounds a central eye labeled the integrator. Fifteen stars ring the seal and six small doors arc across the top. The inscription reads fortune favors the builder.</desc>
<circle cx="340" cy="345" r="288" fill="#141a33" stroke="#d4af37" stroke-width="2"/>
<circle cx="340" cy="345" r="278" fill="none" stroke="#d4af37" stroke-width="0.5" opacity="0.35"/>
<circle cx="340" cy="345" r="258" fill="none" stroke="#d4af37" stroke-width="0.5" opacity="0.5" stroke-dasharray="2 6"/>
<g fill="#d4af37">
<g transform="rotate(0 340 345)"><circle cx="340" cy="87" r="4"/></g>
<g transform="rotate(24 340 345)"><circle cx="340" cy="87" r="4"/></g>
<g transform="rotate(48 340 345)"><circle cx="340" cy="87" r="4"/></g>
<g transform="rotate(72 340 345)"><circle cx="340" cy="87" r="4"/></g>
<g transform="rotate(96 340 345)"><circle cx="340" cy="87" r="4"/></g>
<g transform="rotate(120 340 345)"><circle cx="340" cy="87" r="4"/></g>
<g transform="rotate(144 340 345)"><circle cx="340" cy="87" r="4"/></g>
<g transform="rotate(168 340 345)"><circle cx="340" cy="87" r="4"/></g>
<g transform="rotate(192 340 345)"><circle cx="340" cy="87" r="4"/></g>
<g transform="rotate(216 340 345)"><circle cx="340" cy="87" r="4"/></g>
<g transform="rotate(240 340 345)"><circle cx="340" cy="87" r="4"/></g>
<g transform="rotate(264 340 345)"><circle cx="340" cy="87" r="4"/></g>
<g transform="rotate(288 340 345)"><circle cx="340" cy="87" r="4"/></g>
<g transform="rotate(312 340 345)"><circle cx="340" cy="87" r="4"/></g>
<g transform="rotate(336 340 345)"><circle cx="340" cy="87" r="4"/></g>
</g>
<g fill="none" stroke="#d4af37" stroke-width="1">
<g transform="rotate(-50 340 345)"><rect x="335" y="111" width="10" height="18" rx="2"/></g>
<g transform="rotate(-30 340 345)"><rect x="335" y="111" width="10" height="18" rx="2"/></g>
<g transform="rotate(-10 340 345)"><rect x="335" y="111" width="10" height="18" rx="2"/></g>
<g transform="rotate(10 340 345)"><rect x="335" y="111" width="10" height="18" rx="2"/></g>
<g transform="rotate(30 340 345)"><rect x="335" y="111" width="10" height="18" rx="2"/></g>
<g transform="rotate(50 340 345)"><rect x="335" y="111" width="10" height="18" rx="2"/></g>
</g>
<polygon points="340,185 205,432 475,432" fill="#1e2749" stroke="#d4af37" stroke-width="2"/>
<circle cx="340" cy="185" r="15" fill="#4fbf7f" stroke="#141a33" stroke-width="2"/>
<circle cx="205" cy="432" r="15" fill="#d4af37" stroke="#141a33" stroke-width="2"/>
<circle cx="475" cy="432" r="15" fill="#6ea8f0" stroke="#141a33" stroke-width="2"/>
<text x="340" y="162" text-anchor="middle" font-size="12" fill="#9aa5c9">giving</text>
<text x="205" y="463" text-anchor="middle" font-size="12" fill="#9aa5c9">earning</text>
<text x="475" y="463" text-anchor="middle" font-size="12" fill="#9aa5c9">signal</text>
<ellipse cx="340" cy="338" rx="36" ry="19" fill="none" stroke="#d4af37" stroke-width="1.5"/>
<circle cx="340" cy="338" r="8" fill="#d4af37"/>
<text x="340" y="382" text-anchor="middle" font-size="12" fill="#e8ecf7">the integrator</text>
<g fill="#d4af37" opacity="0.9">
<path transform="translate(150,240)" d="M0 -8 L2 -2 L8 0 L2 2 L0 8 L-2 2 L-8 0 L-2 -2 Z"/>
<path transform="translate(530,240)" d="M0 -8 L2 -2 L8 0 L2 2 L0 8 L-2 2 L-8 0 L-2 -2 Z"/>
<path transform="translate(172,540)" d="M0 -6 L1.5 -1.5 L6 0 L1.5 1.5 L0 6 L-1.5 1.5 L-6 0 L-1.5 -1.5 Z"/>
<path transform="translate(508,540)" d="M0 -6 L1.5 -1.5 L6 0 L1.5 1.5 L0 6 L-1.5 1.5 L-6 0 L-1.5 -1.5 Z"/>
</g>
<line x1="255" y1="512" x2="425" y2="512" stroke="#d4af37" stroke-width="0.5" opacity="0.5"/>
<text x="340" y="548" text-anchor="middle" font-size="17" font-family="Georgia, serif" font-style="italic" fill="#d4af37">fortune favors the builder</text>
<text x="340" y="575" text-anchor="middle" font-size="12" fill="#9aa5c9">one act of building, every single day</text>
</svg>
